<svg viewBox="0 0 640 512" xmlns="http://www.w3.org/2000/svg"><path fill="currentcolor" d="M 78.288 37.101 C 78.288 17.173 94.237 1.077 113.977 1.077 C 370.283 1.077 577.958 210.698 577.958 469.404 C 577.958 489.331 562.008 505.429 542.267 505.429 C 522.525 505.429 506.576 489.331 506.576 469.404 C 506.576 250.55 330.8 73.126 113.977 73.126 C 94.237 73.126 78.288 57.028 78.288 37.101 Z M 78.288 433.378 C 78.288 377.915 137.772 343.25 185.36 370.982 C 207.446 383.852 221.052 407.638 221.052 433.378 C 221.052 488.845 161.567 523.511 113.977 495.777 C 91.893 482.906 78.288 459.121 78.288 433.378 Z M 113.977 145.176 C 291.429 145.176 435.195 290.292 435.195 469.404 C 435.195 489.331 419.245 505.429 399.505 505.429 C 379.762 505.429 363.815 489.331 363.815 469.404 C 363.815 330.144 251.947 217.227 113.977 217.227 C 94.237 217.227 78.288 201.127 78.288 181.203 C 78.288 161.276 94.237 145.176 113.977 145.176 Z" style=""></path></svg>